<?xml version="1.0" encoding="utf-8"?>
<!-- Generator: Adobe Illustrator 16.0.0, SVG Export Plug-In . SVG Version: 6.00 Build 0)  -->
<!DOCTYPE svg PUBLIC "-//W3C//DTD SVG 1.1//EN" "http://www.w3.org/Graphics/SVG/1.1/DTD/svg11.dtd">
<svg version="1.1" id="图层_1" xmlns="http://www.w3.org/2000/svg" xmlns:xlink="http://www.w3.org/1999/xlink" x="0px" y="0px"
	fill="#B2B2B2" width="50px" height="50px" viewBox="0 0 50 50" enable-background="new 0 0 50 50" xml:space="preserve">
<g>
	<g>
		<path fill-rule="evenodd" clip-rule="evenodd" d="M25.5,9.996c-8.379,0-15.171,6.792-15.171,15.171
			c0,8.378,6.792,15.171,15.171,15.171s15.171-6.793,15.171-15.171C40.671,16.788,33.879,9.996,25.5,9.996z M30.804,29.326
			c0.39,0.391,0.39,1.024,0,1.414c-0.391,0.391-1.024,0.391-1.415,0L25.5,26.852l-3.889,3.889c-0.391,0.391-1.024,0.391-1.415,0
			c-0.39-0.39-0.39-1.023,0-1.414l3.889-3.889l-3.889-3.889c-0.39-0.39-0.39-1.023,0-1.414c0.391-0.391,1.024-0.391,1.415,0
			l3.889,3.889l3.889-3.889c0.391-0.391,1.024-0.391,1.415,0c0.39,0.391,0.39,1.024,0,1.414l-3.889,3.889L30.804,29.326z"/>
	</g>
</g>
</svg>
